<svg width="278" height="auto" viewBox="45 30 235 45" fill="none" xmlns="http://www.w3.org/2000/svg">
<path fill-rule="evenodd" clip-rule="evenodd" d="M46.9171 40.2666L46.8223 40.3907V40.399L55.464 49.3281H97.3563L106 40.3932L105.904 40.2666H46.9171Z" fill="#01B49E"/>
<path fill-rule="evenodd" clip-rule="evenodd" d="M84.9867 62.6972L93.1656 54.1426H58.8975L67.0258 62.6431H67.0105L76.4074 72.4706H76.4982L82.203 65.1685C82.203 65.1685 81.6652 65.3495 80.3211 64.1604C79.2732 63.2326 79.2178 62.8292 79.2427 62.6972H84.9867Z" fill="#01B49E"/>
<path fill-rule="evenodd" clip-rule="evenodd" d="M144.772 48.1276H131.78L132.677 43.6728H153.034L153.93 39.218H128.486L124 61.4903H129.089L130.882 52.5824H143.876L144.772 48.1276Z" fill="#313030"/>
<mask id="mask0" style="mask-type:alpha" maskUnits="userSpaceOnUse" x="169" y="39" width="31" height="23">
<path d="M169.719 61.491H199.652V39.219H169.719V61.491Z" fill="#313030"/>
</mask>
<g mask="url(#mask0)">
<path fill-rule="evenodd" clip-rule="evenodd" d="M178.857 44.1969C179.214 43.9513 179.595 43.8014 180.008 43.7487C180.416 43.6993 180.67 43.6738 180.764 43.6738H198.754L199.652 39.219H181.801C181.661 39.219 181.397 39.2286 181.001 39.2477C180.61 39.2684 180.143 39.337 179.6 39.4487C179.061 39.5651 178.485 39.739 177.869 39.9766C177.257 40.2127 176.645 40.5492 176.043 40.9814C175.464 41.3945 174.863 41.9815 174.238 42.7439C173.613 43.5079 173.172 44.5175 172.918 45.776C172.645 47.1381 172.745 48.3343 173.221 49.3647C173.698 50.3966 174.525 51.2005 175.706 51.7779C176.526 52.1479 177.286 52.376 177.988 52.4589C178.691 52.5403 179.123 52.5833 179.287 52.5833H180.774H189.146C189.195 52.5833 189.378 52.6072 189.698 52.6599C190.015 52.7109 190.338 52.8194 190.66 52.9837C190.892 53.1065 191.101 53.3027 191.28 53.5738C191.464 53.8418 191.489 54.2931 191.36 54.9311C191.211 55.676 190.93 56.2007 190.513 56.5118C190.157 56.759 189.773 56.9073 189.365 56.9599C188.951 57.011 188.698 57.0365 188.605 57.0365H170.617L169.719 61.4913H187.566H187.708C187.922 61.4913 188.222 61.4753 188.616 61.445C189.011 61.4147 189.467 61.3414 189.986 61.2281C190.504 61.1149 191.05 60.941 191.631 60.705C192.207 60.4641 192.774 60.1403 193.328 59.7288C193.905 59.3157 194.507 58.7288 195.134 57.9632C195.759 57.2024 196.198 56.1912 196.449 54.9311C196.724 53.5738 196.624 52.376 196.147 51.3424C195.673 50.3121 194.84 49.5194 193.66 48.9627C192.845 48.5704 192.085 48.3343 191.382 48.2514C190.679 48.1684 190.247 48.1285 190.081 48.1285H189.305H180.221C180.196 48.1285 180.03 48.1126 179.72 48.0823C179.407 48.0504 179.103 47.9515 178.806 47.7888C178.527 47.6421 178.294 47.4363 178.099 47.1684C177.906 46.9004 177.876 46.4363 178.008 45.776C178.157 45.0327 178.439 44.5079 178.857 44.1969Z" fill="#313030"/>
</g>
<path fill-rule="evenodd" clip-rule="evenodd" d="M225.977 39.2188H200.531L199.637 43.6735H209.813L206.225 61.4911H211.315L214.902 43.6735H225.081L225.977 39.2188Z" fill="#313030"/>
<path fill-rule="evenodd" clip-rule="evenodd" d="M229.297 52.5521H242.287L243.184 48.0973H230.192L231.089 43.6425H251.445L252.344 39.1877H226.9L222.406 61.4903H247.852L248.747 57.0372H228.392L229.297 52.5521Z" fill="#313030"/>
<path fill-rule="evenodd" clip-rule="evenodd" d="M256.732 48.1283L257.629 43.6735H270.422H270.458H270.526C270.597 43.6735 270.836 43.6991 271.238 43.7485C271.637 43.8011 271.954 43.9511 272.188 44.1967C272.501 44.5077 272.585 45.0341 272.435 45.7757C272.306 46.4169 272.098 46.8699 271.809 47.1378C271.519 47.4058 271.22 47.602 270.912 47.7264C270.55 47.8923 270.192 48.0007 269.843 48.0502C269.489 48.1012 269.29 48.1283 269.241 48.1283H256.732ZM269.529 52.489C269.894 52.4491 270.313 52.371 270.795 52.2577C271.277 52.1461 271.787 51.9738 272.332 51.7473C273.736 51.1907 274.886 50.3964 275.777 49.3644C276.668 48.3341 277.251 47.1378 277.523 45.7757C277.78 44.5173 277.747 43.5093 277.428 42.7437C277.113 41.9813 276.747 41.3943 276.335 40.9828C275.903 40.549 275.429 40.2124 274.912 39.9764C274.394 39.7387 273.888 39.5649 273.396 39.45C272.896 39.3368 272.459 39.2682 272.071 39.2491C271.688 39.2283 271.424 39.2188 271.282 39.2188H253.436L248.95 61.4911H254.038L255.834 52.5831H262.408L270.792 61.4911H278L269.529 52.489Z" fill="#313030"/>
<path fill-rule="evenodd" clip-rule="evenodd" d="M143.349 61.4911H149.039L158.509 49.2097L163.033 61.4911H168.723L160.52 39.2188L143.349 61.4911Z" fill="#313030"/>
</svg>
