<?xml version="1.0" encoding="UTF-8"?>
<svg width="100%" height="100%" viewBox="0 0 118 85" version="1.1" xmlns="http://www.w3.org/2000/svg" xmlns:xlink="http://www.w3.org/1999/xlink">
    <!-- Generator: Sketch Beta 58 (84661) - https://sketch.com -->
    <title>Group</title>
    <desc>Created with Sketch Beta.</desc>
    <defs>
        <polygon id="path-1" points="0.126884706 19.6 22.9328141 19.6 22.9328141 0.05068 0.126884706 0.05068"></polygon>
    </defs>
    <g id="Page-1" stroke="none" stroke-width="1" fill="none" fill-rule="evenodd">
        <g id="FASTER-WHITE" transform="translate(-32.000000, -48.000000)">
            <g id="Group" transform="translate(32.000000, 48.000000)">
                <polygon id="Fill-1" fill="#01B49E" points="17.1378384 0 17 0.205346406 17 0.219221164 29.5586064 15 90.438609 15 103 0.209508834 102.860769 0"></polygon>
                <path d="M72.4621341,37.13064 L84.3482047,22.96964 L34.54804,22.96964 L46.3605341,37.04104 L46.3383224,37.04104 L59.9943929,53.30904 L60.1262753,53.30904 L68.4168165,41.22144 C68.4168165,41.22144 67.63524,41.52104 65.6819929,39.55264 C64.1590988,38.01684 64.0785812,37.34904 64.1146753,37.13064 L72.4621341,37.13064 Z" id="Fill-2" fill="#01B49E"></path>
                <g id="Group-6" transform="translate(0.000000, 65.400000)" fill="#474E4D">
                    <polygon id="Fill-4" points="15.8264376 7.87094 5.92832 7.87094 6.61133176 3.96074 22.1206965 3.96074 22.8037082 0.05054 3.41839059 0.05054 0.000555294118 19.60014 3.87789647 19.60014 5.24392 11.78114 15.1434259 11.78114"></polygon>
                </g>
                <g id="Group-9" transform="translate(34.705882, 65.400000)">
                    <mask id="mask-2" fill="white">
                        <use xlink:href="#path-1"></use>
                    </mask>
                    <g id="Clip-8"></g>
                    <path d="M7.96624941,4.02668 C8.27721412,3.98328 8.47017882,3.96088 8.54236706,3.96088 L22.2484141,3.96088 L22.9328141,0.05068 L9.33227294,0.05068 C9.22537882,0.05068 9.02408471,0.05908 8.72283765,0.07588 C8.42436706,0.09408 8.06897882,0.15428 7.65528471,0.25228 C7.24436706,0.35448 6.80568471,0.50708 6.33646118,0.71568 C5.87001412,0.92288 5.40356706,1.21828 4.94544941,1.59768 C4.50399059,1.96028 4.04587294,2.47548 3.56970824,3.14468 C3.09354353,3.81528 2.75759059,4.70148 2.56462588,5.80608 C2.35639059,7.00168 2.43274353,8.05168 2.79507294,8.95608 C3.15879059,9.86188 3.78904941,10.56748 4.68862588,11.07428 C5.31333176,11.39908 5.89222588,11.59928 6.42669647,11.67208 C6.96255529,11.74348 7.29156706,11.78128 7.41650824,11.78128 L8.54930824,11.78128 L14.9282494,11.78128 C14.9657318,11.78128 15.1045553,11.80228 15.3488847,11.84848 C15.5904376,11.89328 15.8361553,11.98848 16.0818729,12.13268 C16.2581788,12.24048 16.4178259,12.41268 16.5538729,12.65068 C16.6940847,12.88588 16.71352,13.28208 16.6149553,13.84208 C16.50112,14.49588 16.2873318,14.95648 15.9694259,15.22948 C15.69872,15.44648 15.4058024,15.57668 15.0948376,15.62288 C14.7797082,15.66768 14.5867435,15.69008 14.5159435,15.69008 L0.811284706,15.69008 L0.126884706,19.60028 L13.7246494,19.60028 L13.8329318,19.60028 C13.9953553,19.60028 14.2244141,19.58628 14.5242729,19.55968 C14.82552,19.53308 15.1725788,19.46868 15.5682259,19.36928 C15.9624847,19.26988 16.3789553,19.11728 16.8218024,18.91008 C17.2604847,18.69868 17.6922259,18.41448 18.1142494,18.05328 C18.55432,17.69068 19.0124376,17.17548 19.4899906,16.50348 C19.9661553,15.83568 20.30072,14.94808 20.4922965,13.84208 C20.70192,12.65068 20.6255671,11.59928 20.2618494,10.69208 C19.9009082,9.78768 19.2664847,9.09188 18.3669082,8.60328 C17.7463671,8.25888 17.1674729,8.05168 16.6316141,7.97888 C16.0957553,7.90608 15.7667435,7.87108 15.6404141,7.87108 L15.0490259,7.87108 L8.12867294,7.87108 C8.10923765,7.87108 7.98290824,7.85708 7.74690824,7.83048 C7.50813176,7.80248 7.27629647,7.71568 7.05001412,7.57288 C6.83761412,7.44408 6.65992,7.26348 6.51137882,7.02828 C6.36422588,6.79308 6.34201412,6.38568 6.44196706,5.80608 C6.55580235,5.15368 6.77097882,4.69308 7.08888471,4.42008 C7.36097882,4.20448 7.65112,4.07288 7.96624941,4.02668 Z" id="Fill-7" fill="#474E4D" mask="url(#mask-2)"></path>
                </g>
                <g id="Group-12" transform="translate(56.917647, 65.400000)" fill="#474E4D">
                    <polygon id="Fill-10" points="20.77744 0.05054 1.39073412 0.05054 0.709110588 3.96074 8.46240471 3.96074 5.72896941 19.60014 9.60631059 19.60014 12.3397459 3.96074 20.0944282 3.96074"></polygon>
                </g>
                <polygon id="Fill-13" fill="#474E4D" points="80.2248682 77.1537 90.1215976 77.1537 90.8046094 73.2435 80.9064918 73.2435 81.5895035 69.3333 97.0988682 69.3333 97.7832682 65.4231 78.3979506 65.4231 74.9745624 84.9993 94.3612682 84.9993 95.0428918 81.0905 79.5349153 81.0905"></polygon>
                <g id="Group-17" transform="translate(94.400000, 65.400000)" fill="#474E4D">
                    <path d="M6.72697176,7.87094 L7.40998353,3.96074 L17.1567835,3.96074 L17.1845482,3.96074 L17.2359129,3.96074 C17.2900541,3.96074 17.4719129,3.98314 17.7787129,4.02654 C18.0827365,4.07274 18.3242894,4.20434 18.5019835,4.41994 C18.74076,4.69294 18.8046188,5.15494 18.6907835,5.80594 C18.5922188,6.36874 18.43396,6.76634 18.2132306,7.00154 C17.9925012,7.23674 17.7648306,7.40894 17.5302188,7.51814 C17.25396,7.66374 16.9818659,7.75894 16.7153247,7.80234 C16.4460071,7.84714 16.2946894,7.87094 16.2572071,7.87094 L6.72697176,7.87094 Z M16.4765482,11.69854 C16.7541953,11.66354 17.0734894,11.59494 17.4413718,11.49554 C17.8078659,11.39754 18.1965718,11.24634 18.6116541,11.04754 C19.6819835,10.55894 20.55796,9.86174 21.2368071,8.95594 C21.9156541,8.05154 22.3598894,7.00154 22.5667365,5.80594 C22.7624776,4.70134 22.7374894,3.81654 22.4945482,3.14454 C22.2543835,2.47534 21.9753482,1.96014 21.6616071,1.59894 C21.3325953,1.21814 20.9716541,0.92274 20.5773953,0.71554 C20.1831365,0.50694 19.7972071,0.35434 19.4223835,0.25354 C19.0420071,0.15414 18.7088306,0.09394 18.4131365,0.07714 C18.1216071,0.05894 17.9203129,0.05054 17.8120306,0.05054 L4.21565412,0.05054 L0.797818824,19.60014 L4.67377176,19.60014 L6.04257176,11.78114 L11.0513247,11.78114 L17.4385953,19.60014 L22.9304541,19.60014 L16.4765482,11.69854 Z" id="Fill-15"></path>
                </g>
                <polygon id="Fill-18" fill="#474E4D" points="14.7418094 85 19.0772682 85 26.2919271 74.22 29.7389153 85 34.0743741 85 27.8245388 65.4504"></polygon>
            </g>
        </g>
    </g>
</svg>